{
	"asset":{
		"generator":"Khronos glTF Blender I/O v4.0.44",
		"version":"2.0"
	},
	"scene":0,
	"scenes":[
		{
			"name":"Scene",
			"nodes":[
				0
			]
		}
	],
	"nodes":[
		{
			"mesh":0,
			"name":"Icosphere"
		}
	],
	"materials":[
		{
			"doubleSided":true,
			"name":"testMaterial",
			"pbrMetallicRoughness":{
				"baseColorTexture":{
					"index":0
				},
				"metallicFactor":0,
				"roughnessFactor":0.5
			}
		}
	],
	"meshes":[
		{
			"name":"Icosphere",
			"primitives":[
				{
					"attributes":{
						"POSITION":0,
						"NORMAL":1,
						"TEXCOORD_0":2
					},
					"indices":3,
					"material":0
				}
			]
		}
	],
	"textures":[
		{
			"sampler":0,
			"source":0
		}
	],
	"images":[
		{
			"mimeType":"image/jpeg",
			"name":"florb",
			"uri":"florb.jpg"
		}
	],
	"accessors":[
		{
			"bufferView":0,
			"componentType":5126,
			"count":1049,
			"max":[
				0.923734188079834,
				0.9303051233291626,
				0.9248635768890381
			],
			"min":[
				-0.923734188079834,
				-0.9303051233291626,
				-0.9248635768890381
			],
			"type":"VEC3"
		},
		{
			"bufferView":1,
			"componentType":5126,
			"count":1049,
			"type":"VEC3"
		},
		{
			"bufferView":2,
			"componentType":5126,
			"count":1049,
			"type":"VEC2"
		},
		{
			"bufferView":3,
			"componentType":5123,
			"count":5760,
			"type":"SCALAR"
		}
	],
	"bufferViews":[
		{
			"buffer":0,
			"byteLength":12588,
			"byteOffset":0,
			"target":34962
		},
		{
			"buffer":0,
			"byteLength":12588,
			"byteOffset":12588,
			"target":34962
		},
		{
			"buffer":0,
			"byteLength":8392,
			"byteOffset":25176,
			"target":34962
		},
		{
			"buffer":0,
			"byteLength":11520,
			"byteOffset":33568,
			"target":34963
		}
	],
	"samplers":[
		{
			"magFilter": 9729,
			"minFilter": 9987,
			"wrapS": 10497,
			"wrapT": 10497
		}
	],
	"buffers":[
		{
			"byteLength":45088,
			"uri":"florbSphere.bin"
		}
	]
}
